# xmcd CD database file
#
# Track frame offsets:
#	150
#	19476
#	44317
#	61766
#
# Disc length: 1078 seconds
#
# Revision: 1
# Processed by: cddbd v1.5.2PL0 Copyright (c) Steve Scherf et al.
# Submitted via: CDex 1.70beta2
#
DISCID=2d043404
DTITLE=キマグレン - LIFE
DYEAR=1900
DGENRE=JPop
TTITLE0=LIFE
TTITLE1=月光浴
TTITLE2=トコシエ (unplugged)
TTITLE3=LIFE (Instrumental)
EXTD=
EXTT0=
EXTT1=
EXTT2=
EXTT3=
PLAYORDER=
